# Blender 4.1.0
# www.blender.org
mtllib 0625中国天眼-分区线.mtl
o 天眼-分区线
v 9.882741 -300.220001 3.211133
v 19.753601 -299.681000 6.418363
v 29.600801 -298.783020 9.617933
v 39.412605 -297.528015 12.806024
v 49.177303 -295.916016 15.978723
v 58.883003 -293.951019 19.132324
v 68.518303 -291.633026 22.263023
v 78.071602 -288.966003 25.367022
v 87.531403 -285.954010 28.440722
v 96.886505 -282.598999 31.480324
v 106.126007 -278.906006 34.482327
v 115.238007 -274.878998 37.443020
v 124.212006 -270.523010 40.358822
v 133.037003 -265.843018 43.226421
v 141.703003 -260.846008 46.042320
v 150.200012 -255.536011 48.803020
v 158.517014 -249.920013 51.505322
v 166.644012 -244.004013 54.145721
v 174.572006 -237.797012 56.721920
v 182.291016 -231.306015 59.229523
v 189.791016 -224.537018 61.666916
v 197.064011 -217.500015 64.030220
v 204.102005 -210.202011 66.316521
v 210.895004 -202.653015 68.524017
v 217.436005 -194.861008 70.648819
v 223.716003 -186.836014 72.689819
v 229.729004 -178.587006 74.643517
v 235.466019 -170.124008 76.507919
v 237.669006 -166.554001 77.223122
v 141.980011 -178.587021 -195.418991
v 145.526001 -170.124023 -200.298996
v 138.264008 -186.836029 -190.304001
v 134.382004 -194.861023 -184.961990
v 130.340012 -202.653030 -179.397995
v 126.142006 -210.202026 -173.618988
v 121.792007 -217.500031 -167.631989
v 117.297005 -224.537033 -161.445999
v 112.662003 -231.306030 -155.065994
v 107.891006 -237.797028 -148.498993
v 102.992004 -244.004028 -141.755997
v 97.968903 -249.920029 -134.841995
v 92.828804 -255.536026 -127.767982
v 87.577606 -260.846008 -120.539986
v 82.221603 -265.843018 -113.167984
v 76.767105 -270.523010 -105.660980
v 71.220802 -274.878998 -98.026878
v 65.589203 -278.906006 -90.275688
v 59.879105 -282.598999 -82.416481
v 54.097401 -285.954010 -74.458580
v 48.250900 -288.966003 -66.411583
v 42.346703 -291.633026 -58.285080
v 36.391701 -293.951019 -50.088779
v 30.393200 -295.916016 -41.832581
v 24.358402 -297.528015 -33.526279
v 18.294302 -298.783020 -25.179878
v 12.208401 -299.681000 -16.803379
v 6.107891 -300.220001 -8.406677
v 146.887009 -166.554016 -202.173996
v -141.980011 -178.587021 -195.418991
v -145.526001 -170.124023 -200.299988
v -138.264008 -186.836029 -190.304001
v -134.383011 -194.861023 -184.961990
v -130.340012 -202.653030 -179.397995
v -126.142006 -210.202026 -173.618988
v -121.792007 -217.500031 -167.632996
v -117.297005 -224.537033 -161.445999
v -112.662003 -231.306030 -155.064987
v -107.891006 -237.797028 -148.498993
v -102.992004 -244.004028 -141.755997
v -97.968803 -249.920029 -134.841995
v -92.828705 -255.536026 -127.767982
v -87.577507 -260.846008 -120.539986
v -82.221504 -265.843018 -113.167984
v -76.767105 -270.523010 -105.660980
v -71.220703 -274.878998 -98.026878
v -65.589203 -278.906006 -90.275688
v -59.879105 -282.598999 -82.416481
v -54.097401 -285.954010 -74.458580
v -48.250900 -288.966003 -66.411583
v -42.346603 -291.633026 -58.285080
v -36.391701 -293.951019 -50.088779
v -30.393200 -295.916016 -41.832581
v -24.358301 -297.528015 -33.526279
v -18.294302 -298.783020 -25.179878
v -12.208401 -299.681000 -16.803379
v -6.107800 -300.220001 -8.406677
v -146.888000 -166.554016 -202.172989
v -0.000075 -178.586990 241.551025
v -0.000163 -170.123993 247.584030
v -0.000036 -186.835999 235.229019
v 0.000411 -194.860992 228.626022
v -0.000066 -202.653000 221.748032
v 0.000256 -210.201996 214.605026
v -0.000191 -217.500000 207.205032
v -0.000095 -224.537003 199.558029
v 0.000357 -231.306000 191.672028
v -0.000124 -237.796997 183.555023
v 0.000350 -244.003998 175.220016
v 0.000031 -249.919998 166.675018
v 0.000007 -255.535995 157.930023
v 0.000033 -260.846008 148.996017
v 0.000032 -265.843018 139.884018
v 0.000069 -270.523010 130.604019
v 0.000013 -274.878998 121.168030
v 0.000069 -278.906006 111.587029
v 0.000046 -282.598999 101.872025
v 0.000077 -285.954010 92.036026
v 0.000073 -288.966003 82.089325
v 0.000031 -291.633026 72.044426
v 0.000056 -293.951019 61.913326
v 0.000046 -295.916016 51.708027
v 0.000025 -297.528015 41.440922
v 0.000042 -298.783020 31.124125
v 0.000058 -299.681000 20.770224
v 0.000037 -300.220001 10.391323
v 0.000444 -166.553986 249.900024
v -229.729004 -178.587006 74.643318
v -235.466019 -170.124008 76.507523
v -223.716003 -186.836014 72.689720
v -217.436005 -194.861008 70.649521
v -210.895004 -202.653015 68.523819
v -204.102005 -210.202011 66.316917
v -197.064011 -217.500015 64.029716
v -189.791016 -224.537018 61.666618
v -182.290009 -231.306015 59.230122
v -174.572006 -237.797012 56.721622
v -166.644012 -244.004013 54.146324
v -158.517014 -249.920013 51.505322
v -150.200012 -255.536011 48.802921
v -141.703003 -260.846008 46.042221
v -133.037003 -265.843018 43.226421
v -124.212006 -270.523010 40.358921
v -115.238007 -274.878998 37.442921
v -106.125008 -278.906006 34.482327
v -96.886406 -282.598999 31.480324
v -87.531303 -285.954010 28.440722
v -78.071503 -288.966003 25.367022
v -68.518204 -291.633026 22.262924
v -58.882900 -293.951019 19.132324
v -49.177200 -295.916016 15.978723
v -39.412502 -297.528015 12.805923
v -29.600801 -298.783020 9.617933
v -19.753500 -299.681000 6.418393
v -9.882661 -300.220001 3.211133
v -237.669006 -166.554001 77.223816
l 1 2
l 3 4
l 5 6
l 7 8
l 9 10
l 11 12
l 13 14
l 15 16
l 17 18
l 19 20
l 21 22
l 23 24
l 25 26
l 27 28
l 34 33
l 36 35
l 38 37
l 40 39
l 42 41
l 44 43
l 46 45
l 48 47
l 50 49
l 52 51
l 54 53
l 56 55
l 31 58
l 59 60
l 61 59
l 62 61
l 64 63
l 66 65
l 68 67
l 70 69
l 72 71
l 74 73
l 76 75
l 78 77
l 80 79
l 82 81
l 84 83
l 86 85
l 92 91
l 94 93
l 96 95
l 98 97
l 100 99
l 102 101
l 104 103
l 106 105
l 108 107
l 110 109
l 112 111
l 114 113
l 89 116
l 117 118
l 119 117
l 120 119
l 122 121
l 124 123
l 126 125
l 128 127
l 130 129
l 132 131
l 134 133
l 136 135
l 138 137
l 140 139
l 142 141
l 144 143
l 2 3
l 4 5
l 6 7
l 8 9
l 10 11
l 12 13
l 14 15
l 16 17
l 18 19
l 20 21
l 22 23
l 24 25
l 26 27
l 28 29
l 30 31
l 32 30
l 33 32
l 35 34
l 37 36
l 39 38
l 41 40
l 43 42
l 45 44
l 47 46
l 49 48
l 51 50
l 53 52
l 55 54
l 57 56
l 63 62
l 65 64
l 67 66
l 69 68
l 71 70
l 73 72
l 75 74
l 77 76
l 79 78
l 81 80
l 83 82
l 85 84
l 60 87
l 88 89
l 90 88
l 91 90
l 93 92
l 95 94
l 97 96
l 99 98
l 101 100
l 103 102
l 105 104
l 107 106
l 109 108
l 111 110
l 113 112
l 115 114
l 121 120
l 123 122
l 125 124
l 127 126
l 129 128
l 131 130
l 133 132
l 135 134
l 137 136
l 139 138
l 141 140
l 143 142
l 118 145
